%TF.GenerationSoftware,KiCad,Pcbnew,10.0.3*%
%TF.CreationDate,2026-08-15T20:46:10+03:00*%
%TF.ProjectId,step-motor-controller,73746570-2d6d-46f7-946f-722d636f6e74,rev?*%
%TF.SameCoordinates,Original*%
%TF.FileFunction,Copper,L1,Top*%
%TF.FilePolarity,Positive*%
%FSLAX46Y46*%
G04 Gerber Fmt 4.6, Leading zero omitted, Abs format (unit mm)*
G04 Created by KiCad (PCBNEW 10.0.3) date 2026-08-15 20:46:10*
%MOMM*%
%LPD*%
G01*
G04 APERTURE LIST*
%TA.AperFunction,ComponentPad*%
%ADD10C,1.700000*%
%TD*%
%TA.AperFunction,ComponentPad*%
%ADD11C,2.000000*%
%TD*%
%TA.AperFunction,ComponentPad*%
%ADD12C,1.500000*%
%TD*%
%TA.AperFunction,Conductor*%
%ADD13C,0.800000*%
%TD*%
G04 APERTURE END LIST*
D10*
%TO.P,U1,1*%
%TO.N,+24V*%
X-2540000Y0D03*
%TO.P,U1,2*%
%TO.N,GND*%
X0Y0D03*
%TO.P,U1,3*%
%TO.N,+5V*%
X2540000Y0D03*
%TD*%
%TO.P,U5,1*%
%TO.N,N/C*%
X-3810000Y8890000D03*
%TO.P,U5,2*%
X-3810000Y6350000D03*
%TO.P,U5,3*%
X-3810000Y3810000D03*
%TO.P,U5,4*%
%TO.N,+5V*%
X-3810000Y1270000D03*
%TO.P,U5,5*%
%TO.N,N/C*%
X-3810000Y-1269999D03*
%TO.P,U5,6*%
X-3810000Y-3809999D03*
%TO.P,U5,7*%
X-3810000Y-6350000D03*
%TO.P,U5,8*%
%TO.N,GND*%
X-3810000Y-8890000D03*
%TO.P,U5,9*%
%TO.N,N/C*%
X3810000Y-8890000D03*
%TO.P,U5,10*%
X3810000Y-6350000D03*
%TO.P,U5,11*%
X3810000Y-3810000D03*
%TO.P,U5,12*%
%TO.N,GND*%
X3810000Y-1270000D03*
%TO.P,U5,13*%
%TO.N,N/C*%
X3810000Y1269999D03*
%TO.P,U5,14*%
X3810000Y3809999D03*
%TO.P,U5,15*%
X3810000Y6350000D03*
%TO.P,U5,16*%
%TO.N,+5V*%
X3810000Y8890000D03*
%TD*%
%TO.P,SW1,1*%
%TO.N,N/C*%
X-2540000Y0D03*
%TO.P,SW1,2*%
X0Y0D03*
%TO.P,SW1,3*%
%TO.N,GND*%
X2540000Y0D03*
%TD*%
D11*
%TO.P,PS1,1*%
%TO.N,N/C*%
X-3810000Y0D03*
%TO.P,PS1,2*%
X-1270000Y0D03*
%TO.P,PS1,3*%
%TO.N,GND*%
X1270000Y0D03*
%TO.P,PS1,4*%
%TO.N,+24V*%
X3810000Y0D03*
%TD*%
D10*
%TO.P,S4,1*%
%TO.N,+5V*%
X-2540000Y0D03*
%TO.P,S4,2*%
%TO.N,N/C*%
X0Y0D03*
%TO.P,S4,3*%
%TO.N,GND*%
X2540000Y0D03*
%TD*%
D12*
%TO.P,Q1,1*%
%TO.N,N/C*%
X-1270000Y0D03*
%TO.P,Q1,2*%
X0Y0D03*
%TO.P,Q1,3*%
X1270000Y0D03*
%TD*%
D10*
%TO.P,S3,1*%
%TO.N,+5V*%
X-2540000Y0D03*
%TO.P,S3,2*%
%TO.N,N/C*%
X0Y0D03*
%TO.P,S3,3*%
%TO.N,GND*%
X2540000Y0D03*
%TD*%
%TO.P,SW2,1*%
%TO.N,N/C*%
X-2540000Y0D03*
%TO.P,SW2,2*%
X0Y0D03*
%TO.P,SW2,3*%
%TO.N,GND*%
X2540000Y0D03*
%TD*%
%TO.P,C2,1*%
%TO.N,+5V*%
X-1270000Y0D03*
%TO.P,C2,2*%
%TO.N,GND*%
X1270000Y0D03*
%TD*%
%TO.P,J1,1*%
%TO.N,N/C*%
X-2540000Y0D03*
%TO.P,J1,2*%
X0Y0D03*
%TO.P,J1,3*%
%TO.N,GND*%
X2540000Y0D03*
%TD*%
%TO.P,C1,1*%
%TO.N,+24V*%
X-1270000Y0D03*
%TO.P,C1,2*%
%TO.N,GND*%
X1270000Y0D03*
%TD*%
%TO.P,U3,1*%
%TO.N,+3V3*%
X-12000000Y22860000D03*
%TO.P,U3,2*%
%TO.N,N/C*%
X-12000000Y20320000D03*
%TO.P,U3,3*%
X-12000000Y17780000D03*
%TO.P,U3,4*%
X-12000000Y15239999D03*
%TO.P,U3,5*%
X-12000000Y12700000D03*
%TO.P,U3,6*%
X-12000000Y10160000D03*
%TO.P,U3,7*%
X-12000000Y7619999D03*
%TO.P,U3,8*%
X-12000000Y5079999D03*
%TO.P,U3,9*%
X-12000000Y2539999D03*
%TO.P,U3,10*%
X-12000000Y0D03*
%TO.P,U3,11*%
X-12000000Y-2539999D03*
%TO.P,U3,12*%
X-12000000Y-5080000D03*
%TO.P,U3,13*%
X-12000000Y-7620000D03*
%TO.P,U3,14*%
%TO.N,GND*%
X-12000000Y-10160000D03*
%TO.P,U3,15*%
%TO.N,N/C*%
X-12000000Y-12700000D03*
%TO.P,U3,16*%
X-12000000Y-15240000D03*
%TO.P,U3,17*%
X-12000000Y-17780000D03*
%TO.P,U3,18*%
X-12000000Y-20320000D03*
%TO.P,U3,19*%
X-12000000Y-22860000D03*
%TO.P,U3,20*%
X12000000Y-22860000D03*
%TO.P,U3,21*%
X12000000Y-20320000D03*
%TO.P,U3,22*%
X12000000Y-17780000D03*
%TO.P,U3,23*%
X12000000Y-15239999D03*
%TO.P,U3,24*%
X12000000Y-12700000D03*
%TO.P,U3,25*%
X12000000Y-10160000D03*
%TO.P,U3,26*%
X12000000Y-7619999D03*
%TO.P,U3,27*%
X12000000Y-5079999D03*
%TO.P,U3,28*%
X12000000Y-2539999D03*
%TO.P,U3,29*%
X12000000Y0D03*
%TO.P,U3,30*%
X12000000Y2539999D03*
%TO.P,U3,31*%
X12000000Y5080000D03*
%TO.P,U3,32*%
X12000000Y7620000D03*
%TO.P,U3,33*%
X12000000Y10160000D03*
%TO.P,U3,34*%
X12000000Y12700000D03*
%TO.P,U3,35*%
X12000000Y15240000D03*
%TO.P,U3,36*%
X12000000Y17780000D03*
%TO.P,U3,37*%
X12000000Y20320000D03*
%TO.P,U3,38*%
X12000000Y22860000D03*
%TD*%
%TO.P,U2,1*%
%TO.N,+5V*%
X-3810000Y0D03*
%TO.P,U2,2*%
%TO.N,N/C*%
X-1270000Y0D03*
%TO.P,U2,3*%
X1270000Y0D03*
%TO.P,U2,4*%
%TO.N,GND*%
X3810000Y0D03*
%TD*%
%TO.P,J2,1*%
%TO.N,N/C*%
X-3810000Y0D03*
%TO.P,J2,2*%
X-1270000Y0D03*
%TO.P,J2,3*%
X1270000Y0D03*
%TO.P,J2,4*%
X3810000Y0D03*
%TD*%
%TO.P,S1,1*%
%TO.N,+5V*%
X-3810000Y0D03*
%TO.P,S1,2*%
%TO.N,N/C*%
X-1270000Y0D03*
%TO.P,S1,3*%
X1270000Y0D03*
%TO.P,S1,4*%
%TO.N,GND*%
X3810000Y0D03*
%TD*%
%TO.P,S2,1*%
%TO.N,+5V*%
X-3810000Y0D03*
%TO.P,S2,2*%
%TO.N,N/C*%
X-1270000Y0D03*
%TO.P,S2,3*%
X1270000Y0D03*
%TO.P,S2,4*%
%TO.N,GND*%
X3810000Y0D03*
%TD*%
%TO.P,U6,1*%
%TO.N,+5V*%
X-3810000Y8890000D03*
%TO.P,U6,2*%
%TO.N,N/C*%
X-3810000Y6350000D03*
%TO.P,U6,3*%
X-3810000Y3810000D03*
%TO.P,U6,4*%
X-3810000Y1270000D03*
%TO.P,U6,5*%
X-3810000Y-1269999D03*
%TO.P,U6,6*%
X-3810000Y-3809999D03*
%TO.P,U6,7*%
X-3810000Y-6350000D03*
%TO.P,U6,8*%
%TO.N,GND*%
X-3810000Y-8890000D03*
%TO.P,U6,9*%
%TO.N,N/C*%
X3810000Y-8890000D03*
%TO.P,U6,10*%
X3810000Y-6350000D03*
%TO.P,U6,11*%
X3810000Y-3810000D03*
%TO.P,U6,12*%
X3810000Y-1270000D03*
%TO.P,U6,13*%
X3810000Y1269999D03*
%TO.P,U6,14*%
X3810000Y3809999D03*
%TO.P,U6,15*%
X3810000Y6350000D03*
%TO.P,U6,16*%
X3810000Y8890000D03*
%TD*%
%TO.P,J3,1*%
%TO.N,+5V*%
X-8890000Y0D03*
%TO.P,J3,2*%
%TO.N,GND*%
X-6350000Y0D03*
%TO.P,J3,3*%
%TO.N,N/C*%
X-3810000Y0D03*
%TO.P,J3,4*%
X-1270000Y0D03*
%TO.P,J3,5*%
X1269999Y0D03*
%TO.P,J3,6*%
X3809999Y0D03*
%TO.P,J3,7*%
X6350000Y0D03*
%TO.P,J3,8*%
X8890000Y0D03*
%TD*%
%TO.N,+24V*%
D13*
X-2540000Y0D02*
X-1270000Y0D01*
X2700000Y0D02*
X2700000Y4445000D01*
X-2540000Y0D02*
X2700000Y0D01*
X-1270000Y0D02*
X-1270000Y0D01*
X3810000Y0D02*
X3810000Y0D01*
X-2540000Y0D02*
X3810000Y0D01*
%TO.N,GND*%
X0Y0D02*
X2540000Y0D01*
X3810000Y0D02*
X3810000Y0D01*
X2700000Y0D02*
X2700000Y-4445000D01*
X0Y0D02*
X1270000Y0D01*
X0Y0D02*
X2540000Y0D01*
X3810000Y0D02*
X3810000Y-1270000D01*
X1270000Y0D02*
X1270000Y0D01*
X2700000Y0D02*
X2700000Y3175000D01*
X0Y0D02*
X3810000Y0D01*
X0Y0D02*
X-6350000Y0D01*
X-3810000Y0D02*
X-3810000Y-8890000D01*
X3810000Y0D02*
X3810000Y0D01*
X0Y0D02*
X2700000Y0D01*
X0Y0D02*
X3810000Y0D01*
X2540000Y0D02*
X2540000Y0D01*
X2540000Y0D02*
X2540000Y0D01*
X0Y0D02*
X-3810000Y0D01*
X0Y0D02*
X3810000Y0D01*
X0Y0D02*
X-12000000Y0D01*
X2540000Y0D02*
X2540000Y0D01*
X1270000Y0D02*
X1270000Y0D01*
X0Y0D02*
X3810000Y0D01*
X0Y0D02*
X1270000Y0D01*
X2540000Y0D02*
X2540000Y0D01*
X2540000Y0D02*
X2540000Y0D01*
X0Y0D02*
X-3810000Y0D01*
X0Y0D02*
X2700000Y0D01*
X1270000Y0D02*
X1270000Y0D01*
X0Y0D02*
X2540000Y0D01*
X0Y0D02*
X2540000Y0D01*
X-3810000Y0D02*
X-3810000Y-8890000D01*
X3810000Y0D02*
X3810000Y0D01*
X-6350000Y0D02*
X-6350000Y0D01*
X0Y0D02*
X1270000Y0D01*
X-12000000Y0D02*
X-12000000Y-10160000D01*
X0Y0D02*
X2540000Y0D01*
%TO.N,+5V*%
X2540000Y0D02*
X2700000Y0D01*
X-3810000Y0D02*
X-3810000Y0D01*
X2540000Y0D02*
X-3810000Y0D01*
X2540000Y0D02*
X-3810000Y0D01*
X2540000Y0D02*
X-3810000Y0D01*
X2540000Y0D02*
X3810000Y0D01*
X2540000Y0D02*
X-3810000Y0D01*
X-3810000Y0D02*
X-3810000Y1270000D01*
X-1270000Y0D02*
X-1270000Y0D01*
X-2540000Y0D02*
X-2540000Y0D01*
X-3810000Y0D02*
X-3810000Y8890000D01*
X2540000Y0D02*
X-3810000Y0D01*
X2540000Y0D02*
X-1270000Y0D01*
X2540000Y0D02*
X-8890000Y0D01*
X-3810000Y0D02*
X-3810000Y0D01*
X-2540000Y0D02*
X-2540000Y0D01*
X2540000Y0D02*
X-2540000Y0D01*
X-8890000Y0D02*
X-8890000Y0D01*
X3810000Y0D02*
X3810000Y8890000D01*
X-3810000Y0D02*
X-3810000Y0D01*
X2540000Y0D02*
X-2540000Y0D01*
X2700000Y0D02*
X2700000Y-3175000D01*
%TO.N,+3V3*%
X1000000Y0D02*
X1000000Y0D01*
X-1000000Y0D02*
X-12000000Y0D01*
X-1000000Y0D02*
X1000000Y0D01*
X-12000000Y0D02*
X-12000000Y22860000D01*
X-1000000Y0D02*
X-1000000Y0D01*
X-1000000Y0D02*
X-1000000Y0D01*
X-1000000Y0D02*
X-1000000Y0D01*
X-1000000Y0D02*
X1000000Y0D01*
X1000000Y0D02*
X1000000Y0D01*
X-1000000Y0D02*
X-1000000Y0D01*
%TD*%
M02*
